# xmcd
#
# Track frame offsets:
#	150
#	12811
#	30539
#	46452
#	58705
#	78329
#	90266
#	115617
#
# Disc length: 1753 seconds
#
# Revision: 0
# Processed by: cddbd v1.5.2PL0 Copyright (c) Steve Scherf et al.
# Submitted via: audiograbber 1.83.01
#
DISCID=5006d708
DTITLE=The Lonesome River Band - Chronology - Volume 1
DYEAR=1900
DGENRE=Bluegrass
TTITLE0=Close The Door Lightly When You Go
TTITLE1=The Old Man In The Shanty
TTITLE2=Laura Jean
TTITLE3=The Game Is Over
TTITLE4=Mary Ann
TTITLE5=I'm Afraid To Love You Anymore
TTITLE6=Hobo Blues
TTITLE7=Angeline The Baker
EXTD=
EXTT0=
EXTT1=
EXTT2=
EXTT3=
EXTT4=
EXTT5=
EXTT6=
EXTT7=
PLAYORDER=
